<svg width="24" height="24" viewBox="0 0 24 24" fill="none" xmlns="http://www.w3.org/2000/svg">
<g clip-path="url(#clip0_2734_15129)">
<path d="M16.667 11.3335H9.22031L12.4736 8.08014C12.7336 7.82014 12.7336 7.39348 12.4736 7.13348C12.2136 6.87348 11.7936 6.87348 11.5336 7.13348L7.14031 11.5268C6.88031 11.7868 6.88031 12.2068 7.14031 12.4668L11.5336 16.8601C11.7936 17.1201 12.2136 17.1201 12.4736 16.8601C12.7336 16.6001 12.7336 16.1801 12.4736 15.9201L9.22031 12.6668H16.667C17.0336 12.6668 17.3336 12.3668 17.3336 12.0001C17.3336 11.6335 17.0336 11.3335 16.667 11.3335Z" fill="#B0BABF"/>
</g>
<defs>
<clipPath id="clip0_2734_15129">
<rect width="16" height="16" fill="white" transform="translate(4 4)"/>
</clipPath>
</defs>
</svg>
