<svg width="20" height="20" viewBox="0 0 20 20" fill="none" xmlns="http://www.w3.org/2000/svg">
<g clip-path="url(#clip0_1023_1028)">
<path d="M4.16706 10.9834V13.3251C4.16706 13.9334 4.50039 14.5001 5.03372 14.7917L9.20039 17.0667C9.70039 17.3417 10.3004 17.3417 10.8004 17.0667L14.9671 14.7917C15.5004 14.5001 15.8337 13.9334 15.8337 13.3251V10.9834L10.8004 13.7334C10.3004 14.0084 9.70039 14.0084 9.20039 13.7334L4.16706 10.9834ZM9.20039 2.9334L2.17539 6.76673C1.60039 7.0834 1.60039 7.91673 2.17539 8.2334L9.20039 12.0667C9.70039 12.3417 10.3004 12.3417 10.8004 12.0667L17.5004 8.4084V13.3334C17.5004 13.7917 17.8754 14.1667 18.3337 14.1667C18.7921 14.1667 19.1671 13.7917 19.1671 13.3334V7.99173C19.1671 7.6834 19.0004 7.4084 18.7337 7.2584L10.8004 2.9334C10.3004 2.66673 9.70039 2.66673 9.20039 2.9334Z" fill="#007AFF"/>
</g>
<defs>
<clipPath id="clip0_1023_1028">
<rect width="20" height="20" fill="white"/>
</clipPath>
</defs>
</svg>
