<svg width="65" height="65" viewBox="0 0 65 65" fill="none" xmlns="http://www.w3.org/2000/svg">
<rect x="0.333008" y="0.5" width="64" height="64" rx="32" fill="#0067F4" fill-opacity="0.25"/>
<path d="M32.333 46L32.1829 45.7749C31.141 44.2119 30.62 43.4305 29.9317 42.8647C29.3223 42.3639 28.6202 41.9881 27.8654 41.7589C27.0129 41.5 26.0737 41.5 24.1952 41.5H22.133C20.4529 41.5 19.6128 41.5 18.971 41.173C18.4066 40.8854 17.9476 40.4265 17.66 39.862C17.333 39.2202 17.333 38.3802 17.333 36.7V23.8C17.333 22.1198 17.333 21.2798 17.66 20.638C17.9476 20.0735 18.4066 19.6146 18.971 19.327C19.6128 19 20.4528 19 22.133 19H22.733C26.0933 19 27.7735 19 29.057 19.654C30.1859 20.2292 31.1038 21.1471 31.679 22.2761C32.333 23.5595 32.333 25.2397 32.333 28.6M32.333 46V28.6M32.333 46L32.4831 45.7749C33.5251 44.2119 34.046 43.4305 34.7344 42.8647C35.3437 42.3639 36.0459 41.9881 36.8006 41.7589C37.6531 41.5 38.5923 41.5 40.4708 41.5H42.533C44.2132 41.5 45.0532 41.5 45.695 41.173C46.2595 40.8854 46.7184 40.4265 47.006 39.862C47.333 39.2202 47.333 38.3802 47.333 36.7V23.8C47.333 22.1198 47.333 21.2798 47.006 20.638C46.7184 20.0735 46.2595 19.6146 45.695 19.327C45.0532 19 44.2132 19 42.533 19H41.933C38.5727 19 36.8925 19 35.6091 19.654C34.4801 20.2292 33.5622 21.1471 32.987 22.2761C32.333 23.5595 32.333 25.2397 32.333 28.6" stroke="#0067F4" stroke-width="3" stroke-linecap="round" stroke-linejoin="round"/>
</svg>
