<svg width="8" height="30" viewBox="0 0 8 30" fill="none" xmlns="http://www.w3.org/2000/svg">
<g clip-path="url(#clip0_492_17065)">
<path d="M3.2 19.6667C3.2 20.5833 2.48 21.3333 1.6 21.3333C0.72 21.3333 0 20.5833 0 19.6667C0 18.75 0.72 18 1.6 18C2.48 18 3.2 18.75 3.2 19.6667ZM1.6 13C0.72 13 0 13.75 0 14.6667C0 15.5833 0.72 16.3333 1.6 16.3333C2.48 16.3333 3.2 15.5833 3.2 14.6667C3.2 13.75 2.48 13 1.6 13ZM1.6 8C0.72 8 0 8.75 0 9.66667C0 10.5833 0.72 11.3333 1.6 11.3333C2.48 11.3333 3.2 10.5833 3.2 9.66667C3.2 8.75 2.48 8 1.6 8ZM6.4 11.3333C7.28 11.3333 8 10.5833 8 9.66667C8 8.75 7.28 8 6.4 8C5.52 8 4.8 8.75 4.8 9.66667C4.8 10.5833 5.52 11.3333 6.4 11.3333ZM6.4 13C5.52 13 4.8 13.75 4.8 14.6667C4.8 15.5833 5.52 16.3333 6.4 16.3333C7.28 16.3333 8 15.5833 8 14.6667C8 13.75 7.28 13 6.4 13ZM6.4 18C5.52 18 4.8 18.75 4.8 19.6667C4.8 20.5833 5.52 21.3333 6.4 21.3333C7.28 21.3333 8 20.5833 8 19.6667C8 18.75 7.28 18 6.4 18Z" fill="#6E8BB7"/>
</g>
<defs>
<clipPath id="clip0_492_17065">
<rect width="8" height="20" fill="white" transform="translate(0 5)"/>
</clipPath>
</defs>
</svg>
