<svg width="10" height="6" viewBox="0 0 10 6" fill="none" xmlns="http://www.w3.org/2000/svg">
<path d="M5.00008 5.45833C4.88897 5.45833 4.7848 5.44097 4.68758 5.40625C4.59036 5.37153 4.50008 5.3125 4.41675 5.22917L0.583415 1.39583C0.430637 1.24306 0.354248 1.04861 0.354248 0.8125C0.354248 0.576389 0.430637 0.381944 0.583415 0.229167C0.736192 0.0763889 0.930637 0 1.16675 0C1.40286 0 1.5973 0.0763889 1.75008 0.229167L5.00008 3.47917L8.25008 0.229167C8.40286 0.0763889 8.5973 0 8.83342 0C9.06953 0 9.26397 0.0763889 9.41675 0.229167C9.56953 0.381944 9.64592 0.576389 9.64592 0.8125C9.64592 1.04861 9.56953 1.24306 9.41675 1.39583L5.58341 5.22917C5.50008 5.3125 5.4098 5.37153 5.31258 5.40625C5.21536 5.44097 5.11119 5.45833 5.00008 5.45833Z" fill="#9A9A9A"/>
</svg>
