<svg width="20" height="20" viewBox="0 0 20 20" fill="none" xmlns="http://www.w3.org/2000/svg">
<g clip-path="url(#clip0_1215_301)">
<path d="M0 0H20H0ZM20 20H0H20Z" fill="#B0BABF"/>
<path d="M3.54134 4.71683C3.62467 4.82516 8.32467 10.8252 8.32467 10.8252V15.8335C8.32467 16.2918 8.69967 16.6668 9.16634 16.6668H10.8413C11.2997 16.6668 11.683 16.2918 11.683 15.8335V10.8168C11.683 10.8168 16.258 4.96683 16.4747 4.70016C16.6913 4.4335 16.6663 4.16683 16.6663 4.16683C16.6663 3.7085 16.2913 3.3335 15.8247 3.3335H4.17467C3.66634 3.3335 3.33301 3.7335 3.33301 4.16683C3.33301 4.3335 3.38301 4.5335 3.54134 4.71683Z" fill="#6E8BB7"/>
</g>
<defs>
<clipPath id="clip0_1215_301">
<rect width="20" height="20" fill="white"/>
</clipPath>
</defs>
</svg>
