<svg width="12" height="12" viewBox="0 0 12 12" fill="none" xmlns="http://www.w3.org/2000/svg">
<g clip-path="url(#clip0_452_2185)">
<path d="M6 6H5.25C5.25 6.32282 5.45657 6.60943 5.76283 6.71151L6 6ZM6.75 3.5C6.75 3.08579 6.41421 2.75 6 2.75C5.58579 2.75 5.25 3.08579 5.25 3.5H6.75ZM7.26283 7.21151C7.65579 7.3425 8.08053 7.13013 8.21151 6.73717C8.3425 6.34421 8.13013 5.91947 7.73717 5.78849L7.26283 7.21151ZM6.75 6V3.5H5.25V6H6.75ZM5.76283 6.71151L7.26283 7.21151L7.73717 5.78849L6.23717 5.28849L5.76283 6.71151ZM10.25 6C10.25 8.34721 8.34721 10.25 6 10.25V11.75C9.17564 11.75 11.75 9.17564 11.75 6H10.25ZM6 10.25C3.65279 10.25 1.75 8.34721 1.75 6H0.25C0.25 9.17564 2.82436 11.75 6 11.75V10.25ZM1.75 6C1.75 3.65279 3.65279 1.75 6 1.75V0.25C2.82436 0.25 0.25 2.82436 0.25 6H1.75ZM6 1.75C8.34721 1.75 10.25 3.65279 10.25 6H11.75C11.75 2.82436 9.17564 0.25 6 0.25V1.75Z" fill="#28303F"/>
</g>
<defs>
<clipPath id="clip0_452_2185">
<rect width="12" height="12" fill="white"/>
</clipPath>
</defs>
</svg>
