<svg width="20" height="20" viewBox="0 0 20 20" fill="none" xmlns="http://www.w3.org/2000/svg">
<mask id="mask0_93_651" style="mask-type:alpha" maskUnits="userSpaceOnUse" x="0" y="0" width="20" height="20">
<rect width="20" height="20" fill="#D9D9D9"/>
</mask>
<g mask="url(#mask0_93_651)">
<path d="M10 18.75C9 17.8056 7.85417 17.0833 6.5625 16.5833C5.27083 16.0833 3.91667 15.8333 2.5 15.8333V6.66667C3.90278 6.66667 5.25 6.92014 6.54167 7.42709C7.83333 7.93403 8.98611 8.66667 10 9.625C11.0139 8.66667 12.1667 7.93403 13.4583 7.42709C14.75 6.92014 16.0972 6.66667 17.5 6.66667V15.8333C16.0694 15.8333 14.7118 16.0833 13.4271 16.5833C12.1424 17.0833 11 17.8056 10 18.75ZM10 7.5C9.08333 7.5 8.29861 7.17361 7.64583 6.52084C6.99306 5.86806 6.66667 5.08334 6.66667 4.16667C6.66667 3.25 6.99306 2.46528 7.64583 1.8125C8.29861 1.15972 9.08333 0.833336 10 0.833336C10.9167 0.833336 11.7014 1.15972 12.3542 1.8125C13.0069 2.46528 13.3333 3.25 13.3333 4.16667C13.3333 5.08334 13.0069 5.86806 12.3542 6.52084C11.7014 7.17361 10.9167 7.5 10 7.5Z" fill="#403EF5"/>
</g>
</svg>
