<svg width="67" height="28" viewBox="0 0 67 28" fill="none" xmlns="http://www.w3.org/2000/svg">
<path d="M58.9377 18.4298C58.8833 17.9901 58.7808 17.5571 58.6321 17.1379C58.4819 16.7205 58.2539 16.482 57.9586 16.4323C57.7402 16.3942 57.5149 16.4159 57.3088 16.495C57.1026 16.5741 56.9239 16.7074 56.793 16.8795C56.4168 17.3205 56.132 17.8265 55.9538 18.3702C55.7252 19.0407 55.5673 19.7315 55.4824 20.4323C55.389 21.1341 55.3613 21.8425 55.3995 22.549C55.4237 23.1291 55.5336 23.7029 55.7259 24.2534C55.9072 24.7503 56.1714 24.9888 56.5236 25.0385C56.8759 25.0882 57.2127 24.9093 57.5287 24.4919C57.8799 23.9953 58.1555 23.4532 58.3472 22.882C58.5847 22.1721 58.758 21.444 58.8652 20.7056C58.9887 19.9461 59.0096 19.1745 58.9274 18.4099L58.9377 18.4298ZM57.8654 14.4348C58.2401 14.5087 58.5861 14.6807 58.8652 14.9317C59.1487 15.1995 59.3895 15.5059 59.5801 15.841C59.789 15.6126 60.0828 15.4717 60.3986 15.4484C60.72 15.422 61.0433 15.4697 61.3415 15.5876C61.6353 15.7024 61.89 15.8934 62.0771 16.1391C62.1725 16.2643 62.2397 16.4071 62.2745 16.5585C62.3093 16.7099 62.3109 16.8666 62.2791 17.0186C62.1703 17.5155 62.0667 18.077 61.9735 18.7826C61.8802 19.4882 61.8181 20.1689 61.7922 20.8248C61.7634 21.3805 61.786 21.9375 61.8595 22.4894C61.9269 22.9615 62.0719 23.195 62.2895 23.195C62.5071 23.195 62.6521 22.9913 62.8852 22.5888C63.1422 22.1236 63.3739 21.6459 63.5794 21.1577C63.8125 20.6062 64.0198 20.0596 64.2114 19.5081C64.3643 19.0994 64.4872 18.681 64.5792 18.2559C64.6053 18.1449 64.6551 18.0403 64.7255 17.9487C64.796 17.8572 64.8856 17.7807 64.9885 17.7242C65.1578 17.636 65.354 17.6078 65.5428 17.6447C65.7247 17.6877 65.8834 17.794 65.9883 17.9428C66.0508 18.027 66.0893 18.1253 66.1002 18.2281C66.1111 18.3309 66.094 18.4346 66.0505 18.5292C65.9987 18.6882 65.9106 18.9813 65.7863 19.4136C65.662 19.8459 65.5065 20.318 65.3149 20.8447C65.1232 21.3714 64.9004 21.908 64.6414 22.4695C64.3986 23.0058 64.0908 23.5128 63.7245 23.9801C63.4179 24.3832 63.0282 24.7214 62.5796 24.9739C62.3758 25.0905 62.1489 25.1649 61.9133 25.1923C61.6778 25.2197 61.4389 25.1994 61.212 25.1329C60.8376 25.0414 60.4893 24.8708 60.1926 24.6335C59.8959 24.3962 59.6583 24.0982 59.4972 23.7615C59.2918 24.3702 58.9933 24.9462 58.6114 25.4708C58.2426 25.9708 57.732 26.3589 57.1401 26.5888C56.6581 26.7662 56.1332 26.8076 55.6274 26.708C55.232 26.6027 54.8623 26.4234 54.5395 26.1803C54.2168 25.9373 53.9474 25.6353 53.7469 25.2919C53.2628 24.5091 52.9425 23.6433 52.8041 22.7428C52.6421 21.7444 52.6282 20.7289 52.7626 19.7267C52.8799 18.7467 53.1634 17.7917 53.6019 16.8994C53.9824 16.1087 54.5673 15.4246 55.3011 14.9118C55.6743 14.6698 56.0962 14.5054 56.5396 14.4293C56.983 14.3531 57.4382 14.3668 57.8757 14.4695L57.8654 14.4348ZM52.3845 11.6124C52.4428 11.8844 52.4064 12.1672 52.2809 12.4174C52.1509 12.6753 51.9635 12.9026 51.7317 13.0832C51.4729 13.2895 51.1829 13.457 50.8718 13.5801C50.5398 13.7138 50.1918 13.8072 49.8357 13.8584C49.1603 13.9346 48.4757 13.8667 47.8309 13.6596C47.5585 13.5951 47.3116 13.456 47.1203 13.2593C46.929 13.0625 46.8015 12.8166 46.7533 12.5515C46.7219 12.4775 46.7077 12.3978 46.7119 12.318V12.1987C46.7446 11.9577 46.8287 11.7258 46.9588 11.5172C47.0889 11.3086 47.2623 11.1279 47.4682 10.9863C47.9825 10.6156 48.5837 10.3717 49.2192 10.2758H49.3384C49.3452 10.3336 49.3452 10.3919 49.3384 10.4497C49.3338 10.5092 49.3338 10.569 49.3384 10.6286C49.2802 10.9763 49.1099 11.2978 48.8514 11.5478C48.6017 11.8049 48.3115 12.0229 47.9915 12.1938C47.7376 12.3358 47.4611 12.4365 47.1729 12.4919C46.9295 12.5267 46.7896 12.4919 46.7637 12.313V12.1938C46.7637 12.1689 46.7637 12.154 46.7637 12.154C46.7637 12.154 46.7637 12.154 46.7637 12.1192C46.874 11.7001 46.9485 11.273 46.9865 10.8422C47.0219 10.4637 47.0219 10.0829 46.9865 9.70434C46.9725 9.43012 46.9185 9.15914 46.8259 8.89937C46.743 8.69067 46.6186 8.58633 46.458 8.58633C46.2974 8.58633 46.1524 8.70558 46.0281 8.93912C45.8652 9.31476 45.7622 9.71174 45.7224 10.1168C45.6395 10.6683 45.5774 11.3838 45.5359 12.2733C45.4945 13.1627 45.4634 14.2609 45.4323 15.5677C46.0592 15.518 46.6963 15.4832 47.3335 15.4683H48.8877C49.1335 15.4442 49.3818 15.4576 49.6233 15.5081C49.8567 15.5565 50.075 15.6569 50.2605 15.8012C50.4397 15.9488 50.586 16.1297 50.6905 16.3329C50.7984 16.5476 50.8276 16.791 50.7734 17.0236C50.6646 17.5205 50.5661 18.082 50.4677 18.7876C50.3693 19.4931 50.3123 20.1739 50.2864 20.8298C50.2543 21.3919 50.2751 21.9557 50.3486 22.5143C50.4159 22.9863 50.5713 23.2198 50.8148 23.2198C51.0583 23.2198 51.1774 23.0161 51.4105 22.6136C51.6685 22.1518 51.8935 21.6737 52.084 21.1826C52.3016 20.631 52.5088 20.0844 52.6953 19.5329C52.8482 19.1242 52.9711 18.7058 53.0631 18.2807C53.09 18.17 53.1402 18.0658 53.2105 17.9744C53.2809 17.883 53.37 17.8063 53.4724 17.749C53.6418 17.6612 53.8379 17.6331 54.0267 17.6695C54.2094 17.7136 54.3695 17.8195 54.4774 17.9677C54.5371 18.053 54.574 18.1511 54.5849 18.2534C54.5957 18.3557 54.5802 18.4589 54.5395 18.554C54.4826 18.713 54.3945 19.0062 54.2702 19.4385C54.1458 19.8708 53.9904 20.3428 53.8039 20.8695C53.6174 21.3962 53.3636 21.9279 53.1097 22.4894C52.8703 23.017 52.5697 23.5171 52.2135 23.9801C51.9091 24.3778 51.5274 24.7152 51.0894 24.9739C50.8886 25.0907 50.6642 25.1653 50.4311 25.1928C50.198 25.2202 49.9615 25.1998 49.7373 25.1329C49.411 25.0502 49.1054 24.9056 48.8384 24.7076C48.5715 24.5095 48.3486 24.2622 48.1831 23.9801C47.8496 23.3645 47.6621 22.6858 47.634 21.9925C47.5722 21.1837 47.5722 20.3716 47.634 19.5627C47.7014 18.6981 47.7324 17.8484 47.7324 17.0136C47.4061 17.0136 47.0486 17.0136 46.6497 17.0136L45.4427 17.0733C45.415 18.1698 45.415 19.3921 45.4427 20.7404C45.4703 22.0886 45.4893 23.5793 45.4997 25.2124C45.5053 25.433 45.4651 25.6525 45.3815 25.8581C45.2979 26.0636 45.1726 26.2512 45.0127 26.4099C44.7165 26.7187 44.3416 26.9482 43.9248 27.0757C43.5766 27.1945 43.1988 27.2084 42.8421 27.1155C42.6932 27.0825 42.5619 26.9988 42.4724 26.8801C42.3828 26.7613 42.3412 26.6155 42.3551 26.4695L42.6401 17.0584C42.3271 17.0529 42.022 16.9634 41.7594 16.8C41.6693 16.7463 41.593 16.6737 41.5365 16.5876C41.4799 16.5015 41.4446 16.4042 41.433 16.3031C41.4297 16.2034 41.4544 16.1046 41.5045 16.0172C41.5547 15.9298 41.6284 15.8569 41.7179 15.8062C42.0087 15.6383 42.3421 15.5506 42.6815 15.5528C42.7644 13.9826 42.8801 12.6758 43.0286 11.6323C43.1303 10.7655 43.3498 9.91527 43.6813 9.1031C43.8964 8.54826 44.2809 8.06856 44.7848 7.7267C45.2999 7.42946 45.8835 7.25878 46.4839 7.2298C46.8812 7.19878 47.2792 7.27996 47.6288 7.46334C47.9764 7.64354 48.2814 7.8905 48.525 8.18881C48.7719 8.49123 48.9725 8.82586 49.1208 9.1826C49.2614 9.49692 49.337 9.83442 49.3435 10.1764C50.0414 10.0581 50.76 10.1322 51.4157 10.39C51.6847 10.4916 51.9187 10.663 52.0917 10.885C52.2647 11.1071 52.3696 11.3711 52.3948 11.6472L52.3845 11.6124ZM36.9416 18.4298C36.8871 17.9901 36.7847 17.5571 36.6359 17.1379C36.4857 16.7205 36.2577 16.482 35.9573 16.4323C35.7388 16.3948 35.5138 16.4168 35.3078 16.4959C35.1017 16.5749 34.9229 16.7078 34.7917 16.8795C34.4189 17.322 34.136 17.8276 33.9576 18.3702C33.729 19.0407 33.5711 19.7315 33.4862 20.4323C33.3903 21.1339 33.3626 21.8425 33.4033 22.549C33.4275 23.1291 33.5374 23.7029 33.7297 24.2534C33.9058 24.7503 34.1752 24.9888 34.5275 25.0385C34.8797 25.0882 35.2165 24.9093 35.5273 24.4919C35.8825 23.9975 36.1585 23.4549 36.3458 22.882C36.5858 22.1728 36.7592 21.4444 36.8639 20.7056C36.9907 19.9533 37.0168 19.1885 36.9416 18.4298ZM35.9055 14.4546C36.2802 14.5286 36.6262 14.7006 36.9053 14.9515C37.1848 15.2042 37.4255 15.4936 37.6202 15.8112C37.8291 15.5828 38.1229 15.4419 38.4387 15.4186C38.7584 15.3918 39.0801 15.4395 39.3764 15.5577C39.6717 15.6725 39.9281 15.8634 40.1172 16.1093C40.212 16.2412 40.2767 16.3908 40.307 16.5484C40.3374 16.706 40.3327 16.8679 40.2933 17.0236C40.1845 17.5205 40.0809 18.082 39.9877 18.7876C39.8944 19.4931 39.8323 20.1739 39.8012 20.8298C39.7732 21.3837 39.794 21.9389 39.8633 22.4894C39.9307 22.9615 40.0757 23.195 40.2933 23.195C40.5109 23.195 40.6559 22.9913 40.8839 22.5888C41.1448 22.1247 41.3783 21.647 41.5832 21.1577C41.8112 20.6062 42.0236 20.0596 42.2153 19.5081C42.3657 19.0987 42.4886 18.6804 42.5831 18.2559C42.6129 18.1476 42.6655 18.0463 42.7376 17.9583C42.8098 17.8703 42.9 17.7974 43.0027 17.7441C43.1613 17.6631 43.3436 17.6351 43.5207 17.6646C43.7047 17.706 43.8656 17.8125 43.9714 17.9627C44.0347 18.0464 44.0742 18.1445 44.086 18.2473C44.0978 18.3501 44.0815 18.4541 44.0388 18.549C43.987 18.7081 43.8937 19.0012 43.7746 19.4335C43.6554 19.8658 43.4948 20.3379 43.3032 20.8646C43.1115 21.3913 42.8887 21.9279 42.6297 22.4894C42.3903 23.0181 42.0878 23.5183 41.7283 23.9801C41.4205 24.382 41.031 24.7201 40.5834 24.9739C40.3797 25.0905 40.1527 25.1649 39.9171 25.1923C39.6816 25.2197 39.4427 25.1994 39.2158 25.1329C38.8405 25.0421 38.4912 24.8717 38.1935 24.6344C37.8959 24.3971 37.6575 24.0988 37.4959 23.7615C37.2921 24.3699 36.9953 24.9459 36.6152 25.4708C36.2464 25.9708 35.7358 26.3589 35.1439 26.5888C34.6602 26.7664 34.1335 26.8078 33.6261 26.708C32.829 26.4924 32.1531 25.9834 31.7456 25.2919C31.2631 24.5088 30.9446 23.6429 30.8079 22.7428C30.6434 21.7446 30.6294 20.7288 30.7665 19.7267C30.8817 18.7463 31.1653 17.791 31.6057 16.8994C31.9844 16.1091 32.5675 15.4249 33.2997 14.9118C33.674 14.67 34.0968 14.5057 34.541 14.4296C34.9852 14.3534 35.4411 14.367 35.8796 14.4695L35.9055 14.4546ZM20.7889 0C21.307 0 21.9131 -7.4043e-08 22.6902 0.0795029C23.5203 0.13636 24.3468 0.234212 25.1664 0.37267C26.0627 0.521663 26.9499 0.717396 27.824 0.959003C28.6639 1.18554 29.4726 1.50748 30.2329 1.91801C30.9028 2.27804 31.4939 2.75892 31.9735 3.33416C32.4224 3.87929 32.6588 4.55768 32.6418 5.25217C32.6604 5.70389 32.5623 6.15302 32.3562 6.5596C32.1502 6.96618 31.8425 7.3176 31.4606 7.5826C30.6572 8.14954 29.6812 8.44645 28.6839 8.42732C28.5581 8.41708 28.4334 8.39714 28.3109 8.36769C28.1114 8.32431 27.9143 8.27124 27.7204 8.20868C27.5391 8.14974 27.3653 8.0714 27.2023 7.97515C27.1381 7.94313 27.0838 7.89556 27.0447 7.83715C27.0056 7.77874 26.9832 7.71154 26.9796 7.64223C26.9861 7.50274 27.0339 7.36791 27.1174 7.25352C27.2009 7.13913 27.3166 7.0499 27.451 6.99626C27.779 6.81654 28.1264 6.67159 28.4871 6.56397C28.8406 6.45399 29.1867 6.32288 29.5232 6.17142C29.8392 6.02732 29.9946 5.8385 29.9946 5.59999C29.9946 5.15776 29.663 4.78012 28.9948 4.46211C28.2249 4.11635 27.4144 3.86109 26.5807 3.70186C25.6035 3.49743 24.6138 3.35304 23.6175 3.26956C22.5814 3.17515 21.711 3.13043 21.0013 3.13043C20.2916 3.13043 19.4472 3.17515 18.3023 3.26956C17.1574 3.36397 15.9763 3.5031 14.676 3.70186C13.3757 3.90062 12.0858 4.159 10.7337 4.48198C9.49412 4.78118 8.28148 5.17498 7.10737 5.65962C6.12752 6.05283 5.21706 6.58921 4.40836 7.24968C4.08558 7.49892 3.81802 7.80754 3.62141 8.15741C3.42479 8.50727 3.3031 8.89131 3.26348 9.28695C3.21167 9.73415 3.51214 10.1714 4.16488 10.6037C4.97683 11.1126 5.84565 11.5326 6.7551 11.8559C7.81882 12.2633 9.02759 12.6559 10.3814 13.0335C11.7352 13.4112 13.0908 13.7772 14.4481 14.1317C15.8122 14.4861 17.1074 14.8389 18.3334 15.19C19.5594 15.5412 20.5817 15.8724 21.4002 16.1838C22.1876 16.5018 23.0424 16.8845 23.9542 17.3416C24.8243 17.7983 25.6511 18.327 26.4253 18.9217C27.1859 19.4797 27.8487 20.1507 28.3886 20.9093C28.9008 21.6257 29.172 22.4754 29.1657 23.3441C29.1824 24.1028 28.9485 24.8472 28.4974 25.4708C28.0414 26.0765 27.4457 26.573 26.7568 26.9217C25.9832 27.319 25.1494 27.5974 24.2857 27.7466C23.3412 27.9171 22.382 28.0019 21.4209 28C19.2744 28.0003 17.1331 27.7973 15.0283 27.3938C12.9531 26.9896 10.9208 26.4041 8.95679 25.6447C8.18633 25.3591 7.4354 25.0272 6.70848 24.6509C5.93506 24.2578 5.20891 23.7846 4.54305 23.2397C3.90477 22.7375 3.34478 22.1502 2.88013 21.4956C2.44682 20.8611 2.21965 20.1175 2.22739 19.359C2.231 18.9533 2.3209 18.5526 2.49159 18.1813C2.67299 17.7816 2.93739 17.4215 3.26866 17.123C3.63112 16.7951 4.05465 16.5355 4.51715 16.3577C5.0575 16.1428 5.63652 16.0314 6.22151 16.0298C6.38641 16.0302 6.55101 16.0435 6.71366 16.0695C6.89599 16.084 7.07281 16.1366 7.2317 16.2236C7.28828 16.2484 7.33688 16.2872 7.37242 16.3362C7.40796 16.3851 7.42914 16.4424 7.43374 16.5018C7.43374 16.6062 7.29905 16.7354 7.02448 16.8894C6.5617 17.1544 6.14726 17.378 5.78118 17.5602C5.45168 17.7171 5.13632 17.8999 4.83833 18.1068C4.60975 18.258 4.41582 18.4525 4.26849 18.6782C4.14038 18.8855 4.07575 19.1231 4.08199 19.364C4.08193 19.7709 4.21213 20.1681 4.45498 20.5018C4.72955 20.872 5.0535 21.2061 5.41854 21.4956C5.78427 21.7991 6.17397 22.0748 6.58415 22.3205C6.91695 22.5238 7.26302 22.7063 7.62023 22.8671C9.62986 23.8512 11.7576 24.5954 13.9559 25.0832C16.1932 25.5913 18.4846 25.8481 20.7837 25.8484C21.193 25.8484 21.7318 25.8484 22.4 25.8087C23.0693 25.7818 23.7341 25.6902 24.3842 25.5354C24.9824 25.4008 25.5496 25.1616 26.0574 24.8298C26.2821 24.679 26.4642 24.477 26.5872 24.2419C26.7102 24.0068 26.7702 23.7461 26.762 23.4832C26.7461 23.0662 26.6332 22.6579 26.4315 22.2882C26.2298 21.9185 25.9445 21.5968 25.5964 21.3466C24.7215 20.6468 23.7592 20.0542 22.7316 19.5826C21.561 19.032 20.3488 18.5669 19.1053 18.1913C17.8205 17.7971 16.6895 17.4658 15.7121 17.1975C12.8732 16.4124 10.4557 15.7184 8.45947 15.1155C6.79138 14.6404 5.16346 14.0441 3.58985 13.3317C2.57364 12.9004 1.65638 12.2806 0.890834 11.5081C0.617111 11.2017 0.409348 10.8464 0.279533 10.4626C0.149719 10.0788 0.100422 9.67419 0.134489 9.27204C0.20169 8.085 0.65253 6.94747 1.42442 6.01738C2.25265 5.03629 3.26465 4.21222 4.40836 3.58757C5.69544 2.87619 7.06114 2.30455 8.48019 1.88323C9.95462 1.43059 11.4562 1.06388 12.9768 0.785091C14.4022 0.518518 15.8408 0.321166 17.2869 0.193788C18.6684 0.0645959 19.8357 0 20.7889 0Z" fill="#343A40"/>
</svg>
