<svg width="19" height="18" viewBox="0 0 19 18" fill="none" xmlns="http://www.w3.org/2000/svg">
<path d="M8.33333 8.16669V5.66669L12.5 9.00002L8.33333 12.3334V9.83335H0.833332V8.16669H8.33333ZM2.04817 11.5H3.81793C4.80691 13.9432 7.20218 15.6667 10 15.6667C13.6819 15.6667 16.6667 12.6819 16.6667 9.00002C16.6667 5.31812 13.6819 2.33335 10 2.33335C7.20218 2.33335 4.80691 4.05683 3.81793 6.50002H2.04817C3.11006 3.1191 6.26863 0.666687 10 0.666687C14.6023 0.666687 18.3333 4.39765 18.3333 9.00002C18.3333 13.6024 14.6023 17.3334 10 17.3334C6.26863 17.3334 3.11006 14.8809 2.04817 11.5Z" fill="#0067F4"/>
</svg>
