<svg width="65" height="65" viewBox="0 0 65 65" fill="none" xmlns="http://www.w3.org/2000/svg">
<rect x="0.666992" y="0.5" width="64" height="64" rx="32" fill="#0067F4" fill-opacity="0.25"/>
<path d="M21 29.1666V39.1852C21 39.7835 21 40.0826 21.0911 40.3467C21.1716 40.5802 21.3031 40.7929 21.476 40.9694C21.6714 41.169 21.939 41.3028 22.4741 41.5703L31.4741 46.0703C31.9114 46.289 32.13 46.3983 32.3593 46.4413C32.5625 46.4794 32.7709 46.4794 32.974 46.4413C33.2033 46.3983 33.422 46.289 33.8592 46.0703L42.8592 41.5703C43.3943 41.3028 43.6619 41.169 43.8574 40.9694C44.0302 40.7929 44.1617 40.5802 44.2422 40.3467C44.3333 40.0826 44.3333 39.7835 44.3333 39.1852V29.1666M16 26.6666L32.0704 18.6314C32.289 18.5221 32.3983 18.4674 32.513 18.4459C32.6146 18.4269 32.7188 18.4269 32.8203 18.4459C32.935 18.4674 33.0443 18.5221 33.263 18.6314L49.3333 26.6666L33.263 34.7018C33.0443 34.8111 32.935 34.8658 32.8203 34.8873C32.7188 34.9063 32.6146 34.9063 32.513 34.8873C32.3983 34.8658 32.289 34.8111 32.0704 34.7018L16 26.6666Z" stroke="#0067F4" stroke-width="3" stroke-linecap="round" stroke-linejoin="round"/>
</svg>
