<svg width="64" height="65" viewBox="0 0 64 65" fill="none" xmlns="http://www.w3.org/2000/svg">
<rect y="0.5" width="64" height="64" rx="32" fill="#0067F4" fill-opacity="0.25"/>
<path d="M44 30.25V24.7C44 22.1798 44 20.9196 43.5095 19.957C43.0781 19.1103 42.3897 18.4219 41.543 17.9905C40.5804 17.5 39.3202 17.5 36.8 17.5H27.2C24.6798 17.5 23.4196 17.5 22.457 17.9905C21.6103 18.4219 20.9219 19.1103 20.4905 19.957C20 20.9196 20 22.1798 20 24.7V40.3C20 42.8202 20 44.0804 20.4905 45.043C20.9219 45.8897 21.6103 46.5781 22.457 47.0095C23.4196 47.5 24.6798 47.5 27.2 47.5H32M35 31H26M29 37H26M38 25H26M41 46V37M36.5 41.5H45.5" stroke="#0067F4" stroke-width="3" stroke-linecap="round" stroke-linejoin="round"/>
</svg>
