<svg width="20" height="20" viewBox="0 0 20 20" fill="none" xmlns="http://www.w3.org/2000/svg">
<mask id="mask0_93_801" style="mask-type:alpha" maskUnits="userSpaceOnUse" x="0" y="0" width="20" height="20">
<rect width="20" height="20" fill="#D9D9D9"/>
</mask>
<g mask="url(#mask0_93_801)">
<path d="M3.33325 15.8333V14.1667H4.99992V8.33334C4.99992 7.18056 5.34714 6.15626 6.04159 5.26042C6.73603 4.36459 7.63881 3.77778 8.74992 3.50001V2.91667C8.74992 2.56945 8.87145 2.27431 9.1145 2.03126C9.35756 1.7882 9.6527 1.66667 9.99992 1.66667C10.3471 1.66667 10.6423 1.7882 10.8853 2.03126C11.1284 2.27431 11.2499 2.56945 11.2499 2.91667V3.50001C12.361 3.77778 13.2638 4.36459 13.9583 5.26042C14.6527 6.15626 14.9999 7.18056 14.9999 8.33334V14.1667H16.6666V15.8333H3.33325ZM9.99992 18.3333C9.54158 18.3333 9.14922 18.1701 8.82284 17.8438C8.49645 17.5174 8.33325 17.125 8.33325 16.6667H11.6666C11.6666 17.125 11.5034 17.5174 11.177 17.8438C10.8506 18.1701 10.4583 18.3333 9.99992 18.3333Z" fill="#9A9A9A"/>
</g>
</svg>
