<svg width="20" height="20" viewBox="0 0 20 20" fill="none" xmlns="http://www.w3.org/2000/svg">
<mask id="mask0_93_258" style="mask-type:alpha" maskUnits="userSpaceOnUse" x="0" y="0" width="20" height="20">
<rect width="20" height="20" fill="#D9D9D9"/>
</mask>
<g mask="url(#mask0_93_258)">
<path d="M8.87496 13.125L12.9375 10.5208C13.1319 10.3958 13.2291 10.2222 13.2291 9.99996C13.2291 9.77774 13.1319 9.60413 12.9375 9.47913L8.87496 6.87496C8.66663 6.73607 8.45482 6.72565 8.23954 6.84371C8.02426 6.96176 7.91663 7.14579 7.91663 7.39579V12.6041C7.91663 12.8541 8.02426 13.0382 8.23954 13.1562C8.45482 13.2743 8.66663 13.2638 8.87496 13.125ZM9.99996 18.3333C8.84718 18.3333 7.76385 18.1145 6.74996 17.677C5.73607 17.2395 4.85413 16.6458 4.10413 15.8958C3.35413 15.1458 2.76038 14.2638 2.32288 13.25C1.88538 12.2361 1.66663 11.1527 1.66663 9.99996C1.66663 8.84718 1.88538 7.76385 2.32288 6.74996C2.76038 5.73607 3.35413 4.85413 4.10413 4.10413C4.85413 3.35413 5.73607 2.76038 6.74996 2.32288C7.76385 1.88538 8.84718 1.66663 9.99996 1.66663C11.1527 1.66663 12.2361 1.88538 13.25 2.32288C14.2638 2.76038 15.1458 3.35413 15.8958 4.10413C16.6458 4.85413 17.2395 5.73607 17.677 6.74996C18.1145 7.76385 18.3333 8.84718 18.3333 9.99996C18.3333 11.1527 18.1145 12.2361 17.677 13.25C17.2395 14.2638 16.6458 15.1458 15.8958 15.8958C15.1458 16.6458 14.2638 17.2395 13.25 17.677C12.2361 18.1145 11.1527 18.3333 9.99996 18.3333ZM9.99996 16.6666C11.8611 16.6666 13.4375 16.0208 14.7291 14.7291C16.0208 13.4375 16.6666 11.8611 16.6666 9.99996C16.6666 8.13885 16.0208 6.56246 14.7291 5.27079C13.4375 3.97913 11.8611 3.33329 9.99996 3.33329C8.13885 3.33329 6.56246 3.97913 5.27079 5.27079C3.97913 6.56246 3.33329 8.13885 3.33329 9.99996C3.33329 11.8611 3.97913 13.4375 5.27079 14.7291C6.56246 16.0208 8.13885 16.6666 9.99996 16.6666Z" fill="#403EF5"/>
</g>
</svg>
