<svg width="18" height="18" viewBox="0 0 18 18" fill="none" xmlns="http://www.w3.org/2000/svg">
<path d="M10.6666 11.5C10.9027 11.5 11.1076 11.4132 11.2812 11.2395C11.4548 11.0659 11.5416 10.8611 11.5416 10.625C11.5416 10.3888 11.4548 10.184 11.2812 10.0104C11.1076 9.83677 10.9027 9.74996 10.6666 9.74996C10.4305 9.74996 10.2257 9.83677 10.052 10.0104C9.87843 10.184 9.79163 10.3888 9.79163 10.625C9.79163 10.8611 9.87843 11.0659 10.052 11.2395C10.2257 11.4132 10.4305 11.5 10.6666 11.5ZM10.6666 8.83329C10.8194 8.83329 10.9618 8.77774 11.0937 8.66663C11.2257 8.55551 11.3055 8.40968 11.3333 8.22913C11.3611 8.06246 11.4201 7.90968 11.5104 7.77079C11.6007 7.6319 11.7638 7.4444 12 7.20829C12.4166 6.79163 12.6944 6.45482 12.8333 6.19788C12.9722 5.94093 13.0416 5.63885 13.0416 5.29163C13.0416 4.66663 12.8229 4.15621 12.3854 3.76038C11.9479 3.36454 11.375 3.16663 10.6666 3.16663C10.2083 3.16663 9.79163 3.27079 9.41663 3.47913C9.04163 3.68746 8.74302 3.98607 8.52079 4.37496C8.43746 4.51385 8.43052 4.65968 8.49996 4.81246C8.5694 4.96524 8.68746 5.07635 8.85413 5.14579C9.0069 5.21524 9.15621 5.22218 9.30204 5.16663C9.44788 5.11107 9.5694 5.01385 9.66663 4.87496C9.79163 4.6944 9.93746 4.55899 10.1041 4.46871C10.2708 4.37843 10.4583 4.33329 10.6666 4.33329C11 4.33329 11.2708 4.42704 11.4791 4.61454C11.6875 4.80204 11.7916 5.05551 11.7916 5.37496C11.7916 5.5694 11.7361 5.75343 11.625 5.92704C11.5138 6.10065 11.3194 6.3194 11.0416 6.58329C10.6388 6.93051 10.3819 7.19788 10.2708 7.38538C10.1597 7.57288 10.0902 7.84718 10.0625 8.20829C10.0486 8.37496 10.1007 8.52079 10.2187 8.64579C10.3368 8.77079 10.4861 8.83329 10.6666 8.83329ZM5.66663 14C5.20829 14 4.81593 13.8368 4.48954 13.5104C4.16315 13.184 3.99996 12.7916 3.99996 12.3333V2.33329C3.99996 1.87496 4.16315 1.4826 4.48954 1.15621C4.81593 0.82982 5.20829 0.666626 5.66663 0.666626H15.6666C16.125 0.666626 16.5173 0.82982 16.8437 1.15621C17.1701 1.4826 17.3333 1.87496 17.3333 2.33329V12.3333C17.3333 12.7916 17.1701 13.184 16.8437 13.5104C16.5173 13.8368 16.125 14 15.6666 14H5.66663ZM5.66663 12.3333H15.6666V2.33329H5.66663V12.3333ZM2.33329 17.3333C1.87496 17.3333 1.4826 17.1701 1.15621 16.8437C0.82982 16.5173 0.666626 16.125 0.666626 15.6666V4.83329C0.666626 4.59718 0.746487 4.39926 0.906209 4.23954C1.06593 4.07982 1.26385 3.99996 1.49996 3.99996C1.73607 3.99996 1.93399 4.07982 2.09371 4.23954C2.25343 4.39926 2.33329 4.59718 2.33329 4.83329V15.6666H13.1666C13.4027 15.6666 13.6007 15.7465 13.7604 15.9062C13.9201 16.0659 14 16.2638 14 16.5C14 16.7361 13.9201 16.934 13.7604 17.0937C13.6007 17.2534 13.4027 17.3333 13.1666 17.3333H2.33329Z" fill="#262626"/>
</svg>
