<svg width="64" height="64" viewBox="0 0 64 64" fill="none" xmlns="http://www.w3.org/2000/svg">
<rect width="64" height="64" rx="32" fill="#0067F4" fill-opacity="0.25"/>
<path d="M47 45.5V42.5C47 39.7042 45.0878 37.3551 42.5 36.689M37.25 18.9361C39.4489 19.8262 41 21.982 41 24.5C41 27.018 39.4489 29.1738 37.25 30.0639M39.5 45.5C39.5 42.7044 39.5 41.3065 39.0433 40.2039C38.4343 38.7337 37.2663 37.5657 35.7961 36.9567C34.6935 36.5 33.2957 36.5 30.5 36.5H26C23.2044 36.5 21.8065 36.5 20.7039 36.9567C19.2337 37.5657 18.0657 38.7337 17.4567 40.2039C17 41.3065 17 42.7044 17 45.5M34.25 24.5C34.25 27.8137 31.5637 30.5 28.25 30.5C24.9363 30.5 22.25 27.8137 22.25 24.5C22.25 21.1863 24.9363 18.5 28.25 18.5C31.5637 18.5 34.25 21.1863 34.25 24.5Z" stroke="#0067F4" stroke-width="3" stroke-linecap="round" stroke-linejoin="round"/>
</svg>
