<svg width="20" height="12" viewBox="0 0 20 12" fill="none" xmlns="http://www.w3.org/2000/svg">
<path d="M13.333 5.1665C14.7163 5.1665 15.8247 4.04984 15.8247 2.6665C15.8247 1.28317 14.7163 0.166504 13.333 0.166504C11.9497 0.166504 10.833 1.28317 10.833 2.6665C10.833 4.04984 11.9497 5.1665 13.333 5.1665ZM6.66634 5.1665C8.04967 5.1665 9.15801 4.04984 9.15801 2.6665C9.15801 1.28317 8.04967 0.166504 6.66634 0.166504C5.28301 0.166504 4.16634 1.28317 4.16634 2.6665C4.16634 4.04984 5.28301 5.1665 6.66634 5.1665ZM6.66634 6.83317C4.72467 6.83317 0.833008 7.80817 0.833008 9.74984V11.8332H12.4997V9.74984C12.4997 7.80817 8.60801 6.83317 6.66634 6.83317ZM13.333 6.83317C13.0913 6.83317 12.8163 6.84984 12.5247 6.87484C13.4913 7.57484 14.1663 8.5165 14.1663 9.74984V11.8332H19.1663V9.74984C19.1663 7.80817 15.2747 6.83317 13.333 6.83317Z" fill="#0067F4"/>
</svg>
